<svg width="44" height="27" viewBox="0 0 44 27" fill="none" xmlns="http://www.w3.org/2000/svg">
<path d="M31.1453 6.72133L33.7198 9.74633C34.0145 10.0861 34.2759 10.3656 34.3816 10.5245C35.1516 11.2897 35.5832 12.3239 35.5827 13.4016C35.5104 14.6729 34.6818 15.5388 33.9145 16.4649L32.1128 18.5802L31.1731 19.6762C31.1393 19.7141 31.1177 19.7607 31.1105 19.8106C31.1034 19.8605 31.1113 19.9111 31.1333 19.9567C31.1552 20.0021 31.19 20.0402 31.2337 20.0664C31.2774 20.0925 31.3278 20.1054 31.3788 20.1037H40.7708C42.2054 20.1037 44.0126 21.3093 43.907 23.1396C43.9041 23.9716 43.5674 24.7686 42.9705 25.3568C42.3736 25.9451 41.5648 26.2768 40.7207 26.2797H26.0128C25.0453 26.2797 22.4428 26.3839 21.7144 24.1644C21.5594 23.7006 21.5383 23.2036 21.6533 22.7287C21.865 22.0263 22.1999 21.366 22.643 20.7777C23.3826 19.6817 24.1833 18.5857 24.9729 17.5226C25.9905 16.1307 27.036 14.7825 28.0647 13.3632C28.1012 13.317 28.121 13.2601 28.121 13.2015C28.121 13.1429 28.1012 13.0861 28.0647 13.0399L24.3279 8.65579C24.3036 8.62401 24.272 8.59823 24.2359 8.58049C24.1997 8.56273 24.1598 8.55349 24.1194 8.55349C24.0789 8.55349 24.039 8.56273 24.0029 8.58049C23.9667 8.59823 23.9352 8.62401 23.9109 8.65579C22.9099 9.98745 18.5282 15.884 17.5939 17.0787C16.6597 18.2733 14.3576 18.339 13.0842 17.0787L7.23999 11.2972C7.20265 11.2603 7.15503 11.2351 7.10317 11.2249C7.05131 11.2147 6.99754 11.2199 6.94869 11.2399C6.89984 11.2599 6.8581 11.2937 6.82878 11.337C6.79946 11.3804 6.78388 11.4314 6.78401 11.4835V22.6026C6.79776 23.3916 6.56068 24.1651 6.10596 24.8147C5.65125 25.4643 5.0017 25.9574 4.24834 26.225C3.76698 26.39 3.25252 26.4393 2.74788 26.3687C2.24325 26.2981 1.76306 26.1096 1.34734 25.8189C0.931629 25.5283 0.592446 25.1439 0.358074 24.6979C0.123701 24.2518 0.000931025 23.757 0 23.2547V3.26341C0.0335034 2.54297 0.296543 1.85126 0.751744 1.28657C1.20694 0.721883 1.83114 0.312935 2.53567 0.11784C3.13998 -0.0408257 3.77612 -0.0392382 4.37961 0.122441C4.98311 0.284121 5.53252 0.600146 5.97216 1.03849L14.9582 9.90525C14.985 9.93218 15.0176 9.95296 15.0535 9.96611C15.0896 9.97924 15.128 9.98443 15.1661 9.98129C15.2044 9.97816 15.2414 9.96677 15.2746 9.94794C15.3079 9.92912 15.3365 9.90333 15.3586 9.87237L21.7422 1.16454C22.0371 0.81103 22.407 0.525353 22.8258 0.327511C23.2447 0.129667 23.7022 0.0244405 24.1667 0.0191997H40.7708C41.2252 0.019938 41.6742 0.116286 42.0878 0.301802C42.5014 0.487319 42.87 0.757726 43.169 1.09494C43.468 1.43215 43.6904 1.8284 43.8216 2.25717C43.9527 2.68595 43.9894 3.13736 43.9292 3.58125C43.8123 4.35125 43.4159 5.05329 42.8135 5.55716C42.2112 6.06103 41.4439 6.33253 40.654 6.32128H31.3566C31.3099 6.3224 31.2643 6.33585 31.2246 6.36022C31.185 6.38459 31.1527 6.41899 31.1311 6.45984C31.1095 6.5007 31.0995 6.5465 31.102 6.59249C31.1045 6.63848 31.1194 6.68298 31.1453 6.72133Z" fill="#1083AC"/>
</svg>
